<?xml version="1.0" ?><svg xmlns="http://www.w3.org/2000/svg" xmlns:xlink="http://www.w3.org/1999/xlink" version="1.1" viewBox="0 0 512 512" style="enable-background:new 0 0 512 512;" xml:space="preserve"><g id="_x33_1_Pos_Machine"><g><linearGradient id="SVGID_1_" gradientUnits="userSpaceOnUse" x1="284.9663" y1="-205.8513" x2="226.5783" y2="880.1656"><stop offset="0" style="stop-color:#EAE9FE"/><stop offset="0.4236" style="stop-color:#EEEEFE"/><stop offset="0.8967" style="stop-color:#FBFBFF"/><stop offset="1" style="stop-color:#FFFFFF"/></linearGradient><path style="fill:url(#SVGID_1_);" d="M468.836,264.275c-9.502-7.393-20.977-13.763-25.396-24.961    c-6.009-15.229,3.597-31.571,9.261-46.931c17.296-46.9-4.903-102.439-44.732-132.645    c-75.982-57.623-224.302-37.425-245.028,42.219c-8.768,33.692,6.94,72.131-9.131,103.013    c-20.278,38.966-74.073,41.594-108.719,58.921C2.169,285.358-6.419,332.1,24.365,367.686    c11.304,13.068,25.769,22.07,36.136,36.348c15.001,20.659,23.415,43.504,43.486,60.545c28.263,23.996,75.517,29.946,100.538,2.586    c14.09-15.407,18.675-38.106,34.054-52.225c20.245-18.586,52.242-16.086,78.004-6.514c25.762,9.571,49.655,25.026,76.789,29.381    c42.426,6.81,87.917-18.085,105.053-57.489C515.561,340.912,502.748,290.664,468.836,264.275z"/><g><path style="fill:#386E93;" d="M362.565,170.31v249.221c0,12.903-10.46,23.363-23.363,23.363H172.798     c-12.903,0-23.363-10.46-23.363-23.363V170.31c0-12.903,10.46-23.363,23.363-23.363h166.404     C352.105,146.947,362.565,157.407,362.565,170.31z"/><path style="fill:#2769FD;" d="M335.41,284.04v-85.176c0-4.301-3.487-7.788-7.788-7.788H184.376     c-4.301,0-7.788,3.487-7.788,7.788v85.176c0,4.301,3.487,7.788,7.788,7.788h143.246     C331.924,291.828,335.41,288.341,335.41,284.04z"/><path style="fill:#E1E7EE;" d="M219.628,321.261v25.672c0,4.776-3.871,8.647-8.647,8.647h-25.746     c-4.776,0-8.647-3.871-8.647-8.647v-25.672c0-4.776,3.871-8.647,8.647-8.647h25.746     C215.757,312.614,219.628,316.485,219.628,321.261z"/><path style="fill:#E1E7EE;" d="M335.41,321.261v25.672c0,4.776-3.871,8.647-8.647,8.647h-25.746     c-4.776,0-8.647-3.871-8.647-8.647v-25.672c0-4.776,3.871-8.647,8.647-8.647h25.746     C331.539,312.614,335.41,316.485,335.41,321.261z"/><path style="fill:#E1E7EE;" d="M277.519,321.261v25.672c0,4.776-3.871,8.647-8.647,8.647h-25.746     c-4.776,0-8.647-3.871-8.647-8.647v-25.672c0-4.776,3.871-8.647,8.647-8.647h25.746     C273.648,312.614,277.519,316.485,277.519,321.261z"/><path style="fill:#5EDB6B;" d="M219.628,380.488v25.671c0,4.776-3.871,8.647-8.647,8.647h-25.746     c-4.776,0-8.647-3.871-8.647-8.647v-25.671c0-4.776,3.871-8.647,8.647-8.647h25.746     C215.757,371.841,219.628,375.712,219.628,380.488z"/><path style="fill:#F9BB40;" d="M335.41,380.488v25.671c0,4.776-3.871,8.647-8.647,8.647h-25.746     c-4.776,0-8.647-3.871-8.647-8.647v-25.671c0-4.776,3.871-8.647,8.647-8.647h25.746     C331.539,371.841,335.41,375.712,335.41,380.488z"/><path style="fill:#FF5859;" d="M277.519,380.488v25.671c0,4.776-3.871,8.647-8.647,8.647h-25.746     c-4.776,0-8.647-3.871-8.647-8.647v-25.671c0-4.776,3.871-8.647,8.647-8.647h25.746     C273.648,371.841,277.519,375.712,277.519,380.488z"/><path style="fill:#EDEDED;" d="M317.48,169.336V72.709c0-2.107-2.547-3.161-4.037-1.672l-4.652,4.653     c-1.988,1.988-5.21,1.988-7.198,0l-5.09-5.09c-1.988-1.988-5.21-1.988-7.198,0l-5.096,5.096     c-1.985,1.985-5.204,1.988-7.192,0.006l-5.129-5.113c-1.989-1.982-5.207-1.98-7.192,0.006l-5.096,5.095     c-1.988,1.988-5.21,1.988-7.198,0l-5.09-5.09c-1.988-1.987-5.21-1.987-7.198,0l-5.095,5.095     c-1.986,1.985-5.204,1.988-7.192,0.006l-5.129-5.113c-1.989-1.982-5.207-1.98-7.193,0.006l-5.096,5.095     c-1.988,1.988-5.21,1.988-7.198,0l-4.652-4.653c-1.49-1.489-4.037-0.434-4.037,1.672v96.627H317.48z"/><path style="fill:#332E8E;" d="M327.623,187.326H184.376c-6.361,0-11.537,5.176-11.537,11.538v85.176     c0,6.362,5.176,11.538,11.537,11.538h143.247c6.361,0,11.537-5.176,11.537-11.538v-85.176     C339.16,192.502,333.984,187.326,327.623,187.326z M331.66,284.04c0,2.227-1.812,4.038-4.037,4.038H184.376     c-2.225,0-4.037-1.812-4.037-4.038v-85.176c0-2.227,1.812-4.038,4.037-4.038h143.247c2.225,0,4.037,1.812,4.037,4.038V284.04z"/><path style="fill:#332E8E;" d="M210.981,308.864h-25.746c-6.835,0-12.396,5.562-12.396,12.397v25.671     c0,6.836,5.562,12.397,12.396,12.397h25.746c6.836,0,12.397-5.562,12.397-12.397v-25.671     C223.379,314.426,217.817,308.864,210.981,308.864z M215.879,346.933c0,2.7-2.197,4.897-4.897,4.897h-25.746     c-2.7,0-4.896-2.197-4.896-4.897v-25.671c0-2.7,2.196-4.897,4.896-4.897h25.746c2.7,0,4.897,2.197,4.897,4.897V346.933z"/><path style="fill:#332E8E;" d="M326.764,308.864h-25.746c-6.836,0-12.397,5.562-12.397,12.397v25.671     c0,6.836,5.562,12.397,12.397,12.397h25.746c6.835,0,12.396-5.562,12.396-12.397v-25.671     C339.16,314.426,333.598,308.864,326.764,308.864z M331.66,346.933c0,2.7-2.196,4.897-4.896,4.897h-25.746     c-2.7,0-4.897-2.197-4.897-4.897v-25.671c0-2.7,2.197-4.897,4.897-4.897h25.746c2.7,0,4.896,2.197,4.896,4.897V346.933z"/><path style="fill:#332E8E;" d="M268.873,308.864h-25.746c-6.836,0-12.397,5.562-12.397,12.397v25.671     c0,6.836,5.562,12.397,12.397,12.397h25.746c6.835,0,12.396-5.562,12.396-12.397v-25.671     C281.269,314.426,275.708,308.864,268.873,308.864z M273.769,346.933c0,2.7-2.196,4.897-4.896,4.897h-25.746     c-2.7,0-4.897-2.197-4.897-4.897v-25.671c0-2.7,2.197-4.897,4.897-4.897h25.746c2.7,0,4.896,2.197,4.896,4.897V346.933z"/><path style="fill:#332E8E;" d="M210.981,368.09h-25.746c-6.835,0-12.396,5.562-12.396,12.397v25.671     c0,6.836,5.562,12.397,12.396,12.397h25.746c6.836,0,12.397-5.562,12.397-12.397v-25.671     C223.379,373.652,217.817,368.09,210.981,368.09z M215.879,406.159c0,2.7-2.197,4.897-4.897,4.897h-25.746     c-2.7,0-4.896-2.197-4.896-4.897v-25.671c0-2.7,2.196-4.897,4.896-4.897h25.746c2.7,0,4.897,2.197,4.897,4.897V406.159z"/><path style="fill:#332E8E;" d="M326.764,368.09h-25.746c-6.836,0-12.397,5.562-12.397,12.397v25.671     c0,6.836,5.562,12.397,12.397,12.397h25.746c6.835,0,12.396-5.562,12.396-12.397v-25.671     C339.16,373.652,333.598,368.09,326.764,368.09z M331.66,406.159c0,2.7-2.196,4.897-4.896,4.897h-25.746     c-2.7,0-4.897-2.197-4.897-4.897v-25.671c0-2.7,2.197-4.897,4.897-4.897h25.746c2.7,0,4.896,2.197,4.896,4.897V406.159z"/><path style="fill:#332E8E;" d="M268.873,368.09h-25.746c-6.836,0-12.397,5.562-12.397,12.397v25.671     c0,6.836,5.562,12.397,12.397,12.397h25.746c6.835,0,12.396-5.562,12.396-12.397v-25.671     C281.269,373.652,275.708,368.09,268.873,368.09z M273.769,406.159c0,2.7-2.196,4.897-4.896,4.897h-25.746     c-2.7,0-4.897-2.197-4.897-4.897v-25.671c0-2.7,2.197-4.897,4.897-4.897h25.746c2.7,0,4.896,2.197,4.896,4.897V406.159z"/><path style="fill:#332E8E;" d="M256.032,225.034c3.575,0,6.484,2.939,6.484,6.55c0,2.07,1.678,3.75,3.75,3.75     s3.75-1.68,3.75-3.75c0-6.451-4.356-11.887-10.264-13.53v-1.424c0-2.07-1.678-3.75-3.75-3.75s-3.75,1.68-3.75,3.75v1.434     c-5.915,1.656-10.271,7.083-10.271,13.519c0,7.624,6.165,13.833,13.794,13.971c0.077,0.005,0.149,0.023,0.227,0.023     c0.021,0,0.041-0.006,0.063-0.006c3.56,0.019,6.451,2.948,6.451,6.547c0,3.574-2.909,6.482-6.484,6.482     c-3.612,0-6.55-2.908-6.55-6.482c0-2.07-1.678-3.75-3.75-3.75s-3.75,1.68-3.75,3.75c0,6.406,4.356,11.805,10.271,13.454v0.702     c0,2.07,1.678,3.75,3.75,3.75s3.75-1.68,3.75-3.75v-0.691c5.908-1.635,10.264-7.044,10.264-13.464     c0-7.733-6.252-14.027-13.946-14.048c-0.023,0-0.045-0.007-0.068-0.007c-0.003,0-0.006,0.001-0.01,0.001     c-3.594-0.021-6.511-2.917-6.511-6.48C249.482,227.973,252.42,225.034,256.032,225.034z"/><path style="fill:#332E8E;" d="M317.457,67.06c-2.291-0.947-4.907-0.43-6.666,1.326l-4.651,4.653     c-0.524,0.522-1.375,0.522-1.896,0l-5.089-5.09c-3.447-3.447-9.056-3.447-12.501,0l-5.096,5.095c-0.521,0.522-1.37,0.522-1.893,0     l-5.129-5.112c-3.447-3.435-9.052-3.433-12.491,0.012l-5.095,5.095c-0.522,0.52-1.373,0.52-1.896,0l-5.09-5.09     c-3.447-3.447-9.055-3.447-12.5,0l-5.096,5.095c-0.521,0.522-1.37,0.522-1.893,0l-5.129-5.112     c-3.446-3.435-9.053-3.433-12.491,0.012l-5.095,5.095c-0.522,0.522-1.375,0.522-1.895,0l-4.655-4.656     c-1.754-1.755-4.369-2.275-6.664-1.323c-2.292,0.95-3.773,3.169-3.773,5.649v70.488h-17.972     c-14.95,0-27.112,12.163-27.112,27.112v249.221c0,14.949,12.162,27.112,27.112,27.112h166.405     c14.95,0,27.112-12.163,27.112-27.112V170.309c0-14.949-12.162-27.112-27.112-27.112H321.23V72.709     C321.23,70.229,319.749,68.01,317.457,67.06z M198.27,76.054l2.288,2.288c3.444,3.447,9.053,3.447,12.501,0l5.096-5.095     c0.52-0.522,1.371-0.527,1.893-0.002l5.128,5.112c3.448,3.435,9.05,3.435,12.491-0.01l5.096-5.095     c0.522-0.522,1.372-0.522,1.895,0l5.09,5.09c3.444,3.447,9.053,3.447,12.501,0l5.096-5.095c0.521-0.522,1.371-0.525,1.892-0.002     l5.129,5.112c3.448,3.435,9.05,3.435,12.491-0.01l5.096-5.095c0.524-0.525,1.375-0.52,1.896,0l5.089,5.09     c3.446,3.447,9.054,3.447,12.502,0l2.286-2.288v89.531H198.27V76.054z M339.203,150.698c10.814,0,19.612,8.799,19.612,19.612     v249.221c0,10.813-8.798,19.612-19.612,19.612H172.797c-10.814,0-19.612-8.799-19.612-19.612V170.309     c0-10.813,8.798-19.612,19.612-19.612h17.972v14.888h-14.18c-2.072,0-3.75,1.68-3.75,3.75s1.678,3.75,3.75,3.75     c32.807,0,124.687,0,158.82,0c2.072,0,3.75-1.68,3.75-3.75s-1.678-3.75-3.75-3.75h-14.18v-14.888H339.203z"/><path style="fill:#332E8E;" d="M270.586,126.501h-55.001c-2.072,0-3.75,1.68-3.75,3.75s1.678,3.75,3.75,3.75h55.001     c2.072,0,3.75-1.68,3.75-3.75S272.657,126.501,270.586,126.501z"/><path style="fill:#332E8E;" d="M296.416,97.624h-80.831c-2.072,0-3.75,1.68-3.75,3.75s1.678,3.75,3.75,3.75h80.831     c2.072,0,3.75-1.68,3.75-3.75S298.487,97.624,296.416,97.624z"/></g></g></g><g id="Layer_1"/></svg>